<?xml version="1.0" standalone="no"?>
<!DOCTYPE svg PUBLIC "-//W3C//DTD SVG 20010904//EN"
 "http://www.w3.org/TR/2001/REC-SVG-20010904/DTD/svg10.dtd">
<svg version="1.0" xmlns="http://www.w3.org/2000/svg"
 width="32.000000pt" height="32.000000pt" viewBox="0 0 32.000000 32.000000"
 preserveAspectRatio="xMidYMid meet">
<metadata>
Created by potrace 1.16, written by Peter Selinger 2001-2019
</metadata>
<g transform="translate(0.000000,32.000000) scale(0.100000,-0.100000)"
fill="#000000" stroke="none">
<path d="M30 275 c0 -9 7 -18 15 -21 8 -4 15 -12 15 -20 0 -10 -7 -13 -25 -8
-19 5 -25 2 -25 -10 0 -10 9 -16 25 -16 29 0 31 -7 8 -32 -12 -13 -13 -22 -6
-29 13 -13 33 -4 33 15 0 18 66 8 85 -14 16 -17 15 -19 -13 -34 -36 -18 -45
-38 -32 -71 9 -24 13 -25 93 -25 91 0 107 8 107 51 0 21 -9 32 -37 49 -21 13
-50 23 -65 23 -15 0 -25 4 -22 9 3 5 -1 17 -9 26 -20 23 -28 82 -11 82 19 0
28 20 15 33 -7 7 -16 6 -29 -6 -23 -21 -78 -22 -86 -2 -7 20 -36 19 -36 0z"/>
</g>
</svg>
